<svg xmlns="http://www.w3.org/2000/svg" viewBox="0 0 1213.254 649.074"  style="fill:#f8aa71;" data-region-code="6" data-name="Polynésie" id="987">
    <g id="dep_ply">
        <path fill="currentColor" class="cls-1" d="M314.157,104.786l1.381,0.156,1.378,0.433,1.784,1.13,0.537,1.252,1.92,1.27,3.157,1.839,1.1,0.567,1.087,1.536,0.952,1.257,0.526,2.082-0.011.83,0.819,0.84-0.018,1.383,1.367,1.262L330.117,122l1.638,1.681-0.007.553,1.367,1.262-0.005.415,1.227,1.4-0.005.415,0.824,0.425,0.409,0.42L336.389,129l0.409,0.42,0.963,0.427,0.408,0.559,0.824,0.425,0.409,0.42,0.824,0.425,3.037,0.454,1.649,0.851,0.409,0.42,0.819,0.84,1.245,0.016,2.184,2.241-0.005.415-0.415-.005-0.842.957-0.005.415-0.42.409-0.005.415-0.42.409-0.023,1.8-0.42.409-0.007.553-0.84.819-1.394.812-1.8.115-1.516-.434-0.968-.013-1.8.253-1.668.67-1.112.4-0.7.959-0.979.817-1.665.393-0.7.959-0.018,1.383,0.264,0.972-1.528.534-1.246.122-1.683,1.776-0.034,2.628-1.263,1.367-0.005.415-2.1,2.186-0.005.415-0.422.548-0.028,2.213,0.409,0.42-0.021,1.659-0.422.548,0.093,3.459-2.945,3.143-0.005.415-0.42.409-0.011.83-0.422.548-0.005.415-0.84.819-0.415-.005-2.945,3.143-0.415-.005-0.559.408-0.415-.005-0.842.957-0.83-.011-1.108.124-0.7.268-1.245-.016-1.106-.014-0.823-.564-1.108.124-1.252.537-0.152,1.1,0.118,1.523,0.541,0.975,0.264,0.972,1.381,0.156,0.548,0.422,0.837-.542,0.562-.684,1.122-1.23,0.691,0.009,0.963,0.427,0.266,0.833,0.117,1.661,0.115,1.8,0.4,0.835-0.007.553,0.409,0.42,0.117,1.661,0.408,0.559-0.005.415,0.409,0.42-0.005.415,0.819,0.84-0.007.553,1.638,1.681-0.005.415,0.548,0.422-0.018,1.383,0.409,0.42-0.005.415-0.422.548-0.039,3.042-0.42.409-0.023,1.8-0.84.819-0.023,1.8,0.548,0.422-0.005.415,0.4,1.112-0.846,1.234-1.4,1.227-0.294,1.379-0.016,1.245,0.409,0.42-0.152,1.1-1.4,1.088-0.7.683-1.252.537-1.385.12-5.291,2.7-0.84.819-0.837.542-0.42.409-0.835.4-0.842.957-0.835.4-0.42.409-0.835.4-0.007.553-0.42.409-0.011.83-0.83-.011-0.42.409-1.246.122-0.408-.559-1.246.122-0.005.415-0.83-.011-0.42.409-0.553-.007-0.42.409,0.12,1.385,0.409,0.42-0.005.415,0.409,0.42L293,232.579l-0.84.819-0.013.968,0.409,0.42-0.005.415,0.409,0.42-0.005.415,0.408,0.559,0.111,2.076-0.422.548,0.4,1.25-0.42.409-0.007.553-0.42.409-0.005.415-0.42.409-0.005.415-0.422.548-0.016,1.245-1.683,1.776-0.005.415-0.422.548-0.011.83-2.1,2.186-0.005.415-1.683,1.776-0.023,1.8,0.409,0.42-0.005.415,0.409,0.42-0.007.553,0.409,0.42-0.005.415,0.409,0.42-0.982,1.094-1.246.122-1.528.534-1.683,1.776-0.3,1.933-0.431,1.239-0.152,1.1-0.032,2.489-0.3,1.656-0.005.415-0.42.409-0.005.415-0.422.548-0.011.83-0.84.819-0.018,1.383-0.42.409-0.005.415-0.422.548-0.016,1.245-0.42.409-0.007.553-0.42.409-0.415-.005-4.206,4.372-1.66-.021-0.409-.42-2.213-.029-1.262,1.367-0.005.415-0.42.409-0.409-.42-0.83-.011-0.842.957-0.005.415,0.415,0.005,1.775,1.821,0.415,0.005,0.819,0.84-0.005.415,0.409,0.42-0.013.968,0.409,0.42-0.005.415-1.262,1.367-0.415-.005-0.84.819-0.415-.005-0.42.409-1.245-.016-0.422.548-0.415-.005-0.423.43-0.415-.005-0.42.409-0.409-.42-1.245-.016-0.409-.42-2.628-.034-0.409-.42-3.319-.043-0.409-.42-2.629.1-0.42.409-1.245-.016-0.42.409-0.415-.005-0.42.409-1.246.122-1.106-.014-1.809.807-0.42.409-3.459.093-0.409-.42-0.83-.011-0.409-.42-0.83-.011-0.956-.981-1.246.122-0.408-.559-1.246.122-0.408-.559-2.491.106-2.209-.305-0.968-.013-1.938.113-0.832.127-2.491.106-0.42.409-1.383-.018-0.42.409-1.245-.016-0.409-.42-0.415-.005-1.229-1.261-0.415-.005-0.409-.42-0.415-.005-1.365-1.4,0.016-1.245,0.842-.957,0.693-.129,0.291-1.1-0.535-1.39-1.241-.293-1.8-.161,0.023-1.8,0.42-.409,0.3-1.933,0.275,0.142L213,279.83l-0.8-1.947-0.546-.56-0.83-.011-0.422.548-0.835.4-0.42.409-0.835.4-0.018,1.383-0.84.819-0.007.553-2.523,2.6-0.415-.005-0.42.409-3.736.09-0.546-.56-0.415-.005-2.048-2.1,0.005-.415-0.408-.559,0.005-.415-0.548-.422,0.016-1.245-0.408-.559,0.005-.415,0.42-.409,0.023-1.8-0.525-2.22-0.675-1.254-1.229-1.261-0.544-.7-0.261-1.248-1.1-.429-1.261,1.229-0.011.83-0.145.551-0.7.821-0.7.268-1.245-.016-0.548-.422-0.415-.005-5.049-5.321-0.415-.005-1.227-1.4L180,265.434l-0.819-.84-0.415-.005-1.367-1.262-0.415-.005-0.409-.42-0.83-.011-2.594-2.662,0.005-.415,0.42-.409-0.408-.559,0.016-1.245-0.409-.42,0.013-.968-0.819-.84,0.005-.415-3-3.082-0.819-.84,0.007-.553-0.409-.42,0.005-.415-0.409-.42-0.127-.832-0.408-.559,0.016-1.245-0.409-.42,0.005-.415-0.408-.559,0.005-.415-0.819-.84,0.005-.415-0.393-1.665,0.427-.963-0.261-1.248-1.507-1.126-2.065-.718-0.548-.422-0.83-.011-0.409-.42-1.66-.021-0.419-.423-0.415-.005-1.227-1.4-0.553-.007-1.229-1.261-0.675-1.254-0.525-2.22-1.775-1.821-0.415-.005-0.409-.42-0.415-.005-0.409-.42-0.415-.005-0.817-.979-0.415-.005-0.957-.842-0.415-.005-0.409-.42-0.415-.005-0.409-.42-2.074-.027-3.413-3.5-0.415-.005-0.409-.42-0.415-.005-0.409-.42-0.415-.005-0.548-.422-0.415-.005-0.409-.42-0.415-.005-0.817-.979-0.415-.005-2.186-2.1-0.415-.005-0.822-.981-0.415-.005-0.409-.42-0.415-.005-0.819-.84-1.245-.016-0.957-.842-0.415-.005-0.819-.84-0.415-.005-0.408-.559-0.415-.005-0.409-.42-0.83-.011-0.409-.42-0.122-1.246-1.636-1.819-0.415-.005-0.409-.42-0.415-.005-0.819-.84-0.415-.005-0.548-.422,0.041-3.181-0.819-.84,0.045-3.457-1.775-1.821-0.415-.005-0.819-.84-0.118-1.523-0.535-1.39-1.088-1.4-1.094-.982-1.087-1.535-1.361-1.677-2.191-1.688-0.264-.972-1.378-.432-0.535-1.39,0.027-2.074-0.122-1.246,0.571-1.376,0.036-2.766,0.427-.963-0.4-1.388-2.868-2.8-1.633-2.1-0.4-1.25,0.025-1.936,0.84-.819,0.011-.83-0.546-.56,0.005-.415-0.409-.42L100.03,159.7l-0.4-1.388-0.113-1.938,0.045-3.457,0.447-2.484L99.9,148.356l0.42-.409,0.018-1.383,0.42-.409-0.127-.832,0.42-.409,0.018-1.383,0.42-.409,0.018-1.383,0.42-.409,0.005-.415,1-2.2,0.575-1.652,2.082-.526,1.518,0.3,1.527-.4,1.4-1.5,1.254-.675,0.42-.409,0.005-.415,0.422-.548,0.005-.415,0.83,0.011,0.824,0.425,5.941,0.491,3.314,0.458,3.869,0.327-0.007.553,0.409,0.42,0.415,0.005,0.842-.957,0.415,0.005,2.1-2.186,0.415,0.005,1.262-1.367,0.011-.83,0.42-.409,0.415,0.005,1.229,1.261-0.005.415,0.956,0.981,0.415,0.005,1.229,1.261-0.011.83,0.817,0.979,0.415,0.005,1.683-1.776,0.83,0.011,0.422-.548,1.383,0.018,0.409,0.42,3.734,0.048,0.409,0.42,2.213,0.029,2.069,0.441,0.409,0.42,0.415,0.005,0.409,0.42,1.245,0.016,2.594,2.661,0.83,0.011,1.262-1.367,0.005-.415-0.415-.005-0.819-.84,0.422-.548,0.415,0.005,0.42-.409,0.83,0.011,0.409,0.42,0.83,0.011,0.819,0.84,0.968,0.013,0.42-.409,1.66,0.021,0.409,0.42,0.42-.409,0.83,0.011,0.422-.548,0.83,0.011,0.42-.409,0.415,0.005,0.819,0.841,4.23,4.481,1.1,0.291,1.791,0.576,0.817,0.979,0.957,0.842,1.1,0.567L180.45,144l0.259,1.386,0.945,1.81,0.961,0.566L183.3,148.6l0.814,1.255,0.675,1.254-0.02,1.521,0.409,0.42-0.005.415,0.548,0.422-0.007.553,0.409,0.42-0.005.415,0.409,0.42-0.013.968,0.819,0.84-0.005.415,0.409,0.42-0.023,1.8-0.418.409-0.005.415-0.42.409-0.018,1.383,0.548,0.422-0.005.415,2.865,3.08-0.007.553,0.819,0.84-0.005.415,0.957,0.842-0.005.415,0.817,0.979-0.005.415,0.819,0.84-0.013.968,2.186,2.1,0.415,0.005,0.409,0.42,0.83,0.011,0.42-.409,0.83,0.011,1.683-1.776,0.425-.824,0.713-1.651-0.528-1.943-1.22-1.952-0.663-2.222-0.961-.566-1.211-2.644-0.115-1.8,0.014-1.106-0.259-1.386-0.945-1.81,0.023-1.8-0.255-1.663-0.808-1.67-0.956-.981,0.154-1.243,0.434-1.516,0.571-1.376,0.973-.4,1.262-1.367-0.109-2.214,0.154-1.243,0.307-2.347,0.84-.819,0.005-.415,0.42-.409,0.036-2.766,0.835-.4,0.42-.409,0.835-.4,0.571-1.376,1.122-1.23,1.835-2.881,0.007-.553,0.708-1.236,1.261-1.229,1.8-.115,0.7-.268,0.409,0.42,2.9,0.038,0.42-.409,1.8,0.023,0.409,0.42,1.661-.117,0.42-.409,0.415,0.005,0.42-.409,2.074,0.027,0.409,0.42,0.968,0.013,1.229,1.261,1.245,0.016,0.409,0.42,2.9,0.038,1.257-.952,1.388-.4,1.66,0.021,0.409,0.42,0.83,0.011,3.684,3.92-0.014,1.106-0.034,2.628,0.257,1.525-0.041,3.181,0.261,1.248,0.541,0.975,0.666,1.945-0.009.691,0.659,2.5,0.961,0.566,0.541,0.975,0.255,1.663,0.409,0.42L240.5,152.8l-0.158,1.519-0.152,1.1-0.02,1.521,0.688,0.286,1.094,0.982,1.66,0.021,1.667-.532,1.113-.539,0.857-2.064,0.42-.409,0.023-1.8,0.7-.683,0.991-1.785-0.12-1.385,0.036-2.766,0.582-2.206,0.163-1.934-0.674-1.392-0.679-.977-0.4-1.388,0.716-1.927,0.02-1.521-0.115-1.8-0.409-.42-0.824-.425-0.819-.84,0.007-.553-0.124-1.108,0.149-.828,0.842-.957,1.119-.954,0.422-.548,0.034-2.628,2.661-2.594,2.213,0.029,2.36-.661,1.246-.122,1.525-.257,0.711-1.512,2.092-1.356,1.246-.122,2.355-.246,0.411,0.282,2.628,0.034,0.977-.679,1.667-.532,1.378,0.433,1.365,1.4,1.252-.537,0.977-.679,1.106,0.014,1.656,0.3,1.525-.257,0.975-.541,0.832-.127,1.383,0.018,2.216-.248,6.392-2.269,0.835-.4,5.129-.9,0.835-.4,1.262-1.367,2.08-.388,5.135-1.317,0.83,0.011,0.842-.957,0.415,0.005,0.42-.409,0.415,0.005,1.543-1.64,0.981-.956Zm6.732,14.2-0.842.957-0.553-.007-0.42.409,0.109,2.214,0.409,0.42-0.005.415,1.636,1.819,0.415,0.005,0.409,0.42,0.968,0.013,0.409,0.42,0.415,0.005,1.636,1.819,0.415,0.005,1.262-1.367,0.018-1.383-0.409-.42,0.011-.83-0.409-.42,0.005-.415-1.775-1.821-0.415-.005-1.229-1.261-0.415-.005-0.409-.42-0.415-.005-0.408-.559Zm-212.946,6.1,0.83,0.011,0.413,0.143-0.013.968-0.837.542-0.009.691,0.271,0.418,0.122,1.246-0.42.409-0.007.553-0.84.819-2.628-.034-2.865-3.08-0.133-.416,0.42-.409,0.553,0.007,0.42-.409,0.415,0.005,0.422-.548,1.245,0.016,0.42-.409,1.66,0.021Zm-11.106,3.176,1.245,0.016,0.819,0.84-0.007.553,0.409,0.42L99.3,130.5l0.957,0.842,0.415,0.005,0.409,0.42,0.415,0.005,0.42-.409,0.83,0.011,0.278-.134,0.97-.126,0.133,0.416-0.152,1.1-0.422.548-0.415-.005-1.261,1.229-2.074-.027-0.422.548-0.415-.005-0.42.409-2.489-.032-0.42.409-1.385.12-0.817-.979-0.686-.424-0.821-.7,0.152-1.1,1.546-1.916,1.121-1.092,0.415,0.005L96,128.663l0.415,0.005Zm644.837,9.85,0.966,0.151,2.074,0.027,0.956,0.981,0.964,0.289,1.243,0.154,0.4,0.835,0.952,1.257,0.129,0.693,1.5,1.4,0.824,0.425,0.824,0.425,0.548,0.422,0.824,0.425,1.519,0.158,3.037,0.454,6.081,0.355,0.127,0.832,0.539,1.113,0.127,0.832,0.537,1.252,0.824,0.425,2.184,2.241,4.122,2.128,0.409,0.42,1.792,0.438,1.239,0.431,1.652,0.575,1.239,0.431,4.7,0.337,3.447,0.874,0.83,0.011,0.824,0.425,0.828,0.149,1.941-.39,0.42-.409,1.674-1.085,0.973-.4,1.521,0.02,0.55,0.284,2.214-.109,0.55,0.284,1.51,0.849,1.237,0.569,2.211,0.167,2.213,0.029,4.009,0.19,0.686,0.424,1.663-.255,0.97-.126,1.8,0.023,1.246-.122,1.66,0.021,0.824,0.425,2.074,0.027,9.815,0.4,2.207,0.443,1.1,0.152,2.628,0.034,2.38-2.182,1.525-.257,0.83,0.011,2.455,2.66,1.239,0.431,2.611,1.279,2.484,0.447,2.207,0.443,0.409,0.42,0.83,0.011,0.42-.409,0.415,0.005,0.409,0.42,0.415,0.005,1.636,1.819-0.005.415,0.957,0.842-0.005.415,0.817,0.979,0.415,0.005,0.409,0.42,0.415,0.005,0.409,0.42,0.83,0.011,0.819,0.84,1.51,0.849,1.379,0.294,2.076-.111,1.66,0.021,2.344,0.584,2.9,0.176,1.388-.4,1.8-.115L879,171.691l1.227,1.4-0.013.968,0.129,0.693,2.069,0.441,1.237,0.569,1.792,0.438,1.239,0.431,1.654,0.436,1.239,0.431,1.787,0.853,0.409,0.42,0.824,0.425,0.409,0.42,0.824,0.425,0.408,0.559,0.824,0.425,1.776,1.683-0.005.415,0.408,0.559-0.005.415,0.409,0.42,1.245,0.016,1.229,1.261-0.005.415,0.546,0.56-0.005.415,0.409,0.42-0.005.415,0.409,0.42,0.415,0.005,1.66,0.021,0.819,0.84,1.245,0.016,0.409,0.42,1.089,1.4,1.085,1.674-0.018,1.383,1.649,0.851,1.512,0.711,1.927,0.716,0.824,0.425,2.6,2.523-0.007.553,0.409,0.42-0.005.415,0.409,0.42-0.005.415,0.409,0.42-0.013.968,1.638,1.681,1.378,0.433,0.823,0.564,1.239,0.431,0.824,0.425L925.013,207l0.824,0.425,2.622,0.449,2.489,0.032,0.409,0.42,0.415,0.005,0.42-.409,0.832-.127,0.546,0.56,0.83,0.011,0.409,0.42,2.491-.106,0.817,0.979,0.415,0.005,0.819,0.84,1.383,0.018,0.42-.409,1.66,0.021,0.422-.548,0.415,0.005,0.835-.4,1.658,0.16,1.658,0.16,1.527-.4,1.667-.532,0.97-.126,1.936,0.025,0.968,0.013,3.03,1.007,0.957,0.842,1.1,0.291,1.374,0.709,0.956,0.981,4.558,0.474,1.649,0.851,0.548,0.422,0.824,0.425,0.409,0.42L974,215.374l0.824,0.425,0.548,0.422,0.824,0.425,0.817,0.979,0.824,0.425-0.005.415,0.409,0.42,0.415,0.005,3.822,3.922-0.007.553,3,3.082,0.415,0.005,0.409,0.42,0.83,0.011,0.409,0.42,0.415,0.005,0.409,0.42,0.83,0.011,0.409,0.42,0.83,0.011,0.548,0.422L991.4,228.6l0.819,0.84-0.007.553-1.681,1.638-0.007.553,1.229,1.261-0.005.415,0.817,0.979-0.011.83,0.409,0.42-0.005.415,0.548,0.422-0.007.553,0.819,0.84-0.005.415,0.409,0.42-0.005.415,0.408,0.559-0.005.415,0.819,0.84-0.005.415,1.636,1.819-0.005.415-0.42.409-0.005.415,1.775,1.821-0.005.415,0.409,0.42-0.013.968,2.594,2.661-0.005.415,0.409,0.42-0.005.415,1.636,1.819,0.415,0.005,0.409,0.42,2.074,0.027,0.548,0.422,0.415,0.005,0.819,0.84,0.415,0.005,0.409,0.42,0.415,0.005,0.819,0.84,0.415,0.005,1.239,0.431,0.961,0.566,1.239,0.431,0.682,0.7,0.537,1.252,0.808,1.67,1.782,1.268,0.409,0.42-0.005.415,0.819,0.84-0.005.415,1.227,1.4,1.229,1.261-0.005.415,1.365,1.4-0.005.415,0.409,0.42-0.005.415-0.42.409-0.007.553,0.409,0.42-0.011.83,0.409,0.42-0.013.968,0.409,0.42-0.005.415,0.409,0.42-0.005.415-1.683,1.776-0.005.415-0.842.957-0.019,1.521,0.4,1.388,1.092,1.121,1.1,0.844,3.321-.1,1.775,1.821-0.005.415-0.42.409-0.005.415-0.422.548-0.415-.005-0.42.409-0.968-.013-1.392.674-0.422.548,0.264,0.972,1.229,1.261-0.007.553,0.409,0.42-0.005.415,0.409,0.42,0.125,0.97,0.1,3.183,1.491,2.371,1.09,1.259,1.5,1.817,0.271,0.418,0.941,2.087,0.539,1.113,0.393,1.665,0.659,2.5,1.213,2.505,0.5,4.294,0.826,0.287,0.819,0.84,0.4,0.835-1.009,3.168-0.858,2.2-1.275,2.335-1.453,5.376-1.007,3.03,0.077,4.7-0.729,2.9-0.016,1.245,0.409,0.42-0.018,1.383,0.409,0.42,0.1,2.629-0.42.409-0.005.415-1.263,1.367-0.045,3.457-0.422.548-0.045,3.457-5.468,5.739-0.835.4-0.422.548-0.415-.005-2.1,2.186-0.005.415,0.409,0.42-0.005.415,0.409,0.42-0.018,1.383,0.409,0.42-0.011.83,0.409,0.42-0.007.553,0.548,0.422-0.42.409-0.005.415,0.409,0.42-0.018,1.383-1.262,1.367-0.005.415-0.42.409-0.018,1.383-0.42.409-0.016,1.245-0.422.548-0.022,1.659-0.42.409-0.013.968-2.1,2.186-0.028,2.213,0.409,0.42,0.093,3.459,0.679,0.977,0.4,0.835,0.4,1.388,0.534,1.528,0.115,1.8-0.295,1.379-0.984,1.232-0.019,1.521,0.393,1.665,0.81,1.532,1.09,1.259,0.807,1.808,0.681,0.839,0.95,1.4,0.533,1.528,0.95,1.4,0.815,1.117,0.117,1.661-0.156,1.381-0.154,1.243-0.043,3.319,0.674,1.392,1.37,0.986,0.553,0.007,2.488,0.17,1.5,1.679,0.391,1.8-1.271,2.058-1.55,2.193-0.582,2.206-0.309,2.486-0.028,2.213,0.672,1.53,0.39,1.941,0.769,4.713-1.4,1.5,0.255,1.663,0.672,1.53,0.253,1.8-0.456,3.175-0.316,3.039,0.266,0.833,0.271,0.418,0.808,1.67,0.409,0.42-0.007.553,0.409,0.42-0.091,7.053-0.42.409-0.314,2.9-0.866,2.755-1.142,2.751-1.268,1.782-0.022,1.659-0.6,3.865-0.443,2.207,0.656,2.775,1.225,1.537,1.521,0.02,1.766,2.512,1.651,0.713,0.927,3.193,1.22,1.952,1.1,0.706,2.184,2.241,0.826,0.287,1.787,0.853,1.237,0.569,1.649,0.851,10.507,0.412,2.207,0.443,6.335,2.157,0.824,0.425,0.408,0.559-0.005.415,1.239,0.431,1.245,0.016,0.819,0.84,0.553,0.007,0.409,0.42,0.415,0.005,0.817,0.979,0.415,0.005,0.409,0.42,0.415,0.005,0.819,0.84,0.415,0.005,1.367,1.262,0.415,0.005,0.408,0.559,0.415,0.005,0.409,0.42,0.415,0.005,0.409,0.42,2.489,0.032,0.409,0.42,0.42-.409,0.415,0.005,0.548,0.422,1.659,0.021,0.409,0.42,0.415,0.005,0.819,0.841,0.415,0.005,0.409,0.42,4.287,0.055,0.42-.409,0.415,0.005,0.409,0.42,2.076-.111,0.408,0.559,3.044-.1,0.408,0.559,3.321-.1,0.42-.409,2.9,0.038,0.42-.409,0.415,0.005,0.422-.548,0.553,0.007,0.42-.409,0.415,0.005,0.42-.409,2.489,0.032,0.422-.548,0.83,0.011,0.42-.409,0.415,0.005,0.42-.409,0.415,0.005,0.42-.409,0.415,0.005,1.262-1.367,0.415,0.005,0.42-.409,0.415,0.005,0.42-.409,0.415,0.005,0.422-.548,0.415,0.005,0.42-.409,0.968,0.013,0.409,0.42,0.415,0.005,0.409,0.42-0.007.553,0.409,0.42-0.005.415,1.229,1.261,1.659,0.022,0.42-.409,0.415,0.005,0.42-.409,0.415,0.005,0.422-.548,0.553,0.007,0.42-.409,0.415,0.005,0.42-.409,5.67,0.073,1.119-.954,2.074,0.027,1.792,0.438,0.692,0.009,0.42-.409,3.321-.1,0.408,0.559,1.385-.12,2.177,2.794,1.1,0.429,2.479,0.862,3.324-.372,0.982-1.094,3.457,0.045,2.479,0.862,0.395,1.527-0.973.4-0.285.688-0.3,1.518,0.261,1.248,0.393,1.665,0.81,1.532,0.823,0.564,1.376,0.571,1.239,0.431,4.258,2.268,1.794,0.3,1.245,0.016,3.461-.232,1.81-.945,2.353-.108,2.5-.936,0.42-.409,0.7-.406,1.254-.675,1.527-.395,1.376,0.571,0.124,1.108-1.262,1.367-0.436,1.654-0.005.415,0.819,0.84-0.007.553,0.819,0.84,1.232,0.984,3.037,0.454,1.254-.675,2.193,1.55,0.821,0.7,2.069,0.441,1.094,0.982,1.791,0.576,1.106,0.014,1.931,0.44,1.519,0.158,0.959,0.7,2.759,0.589,1.241,0.293,3.872,0.05,3.166,1.147,0.824,0.425,1.8,0.023,1.246-.122,0.85-1.511,1.115-.677,3.046-.237,0.819,0.84,3.851,1.71,2.461,2.245L1234,548.6l2.08-.388,1.66,0.022,2.647-1.487,0.842-.957,0.567-1.1,0.564-.823,0.027-2.074,0.027-2.074-0.093-3.459,0.981-.956,2.078-.25,0.7-.683,0.97-.126,1.241,0.293,0.824,0.425,0.83,0.011,2.594,2.661-0.452,2.9-0.165,2.073,0.234,3.323,0.408,0.559,0.674,1.392-0.025,1.936,1.069,2.918,1.236,0.708,3.73,0.325,1.652,0.575,2.331,1.552,1.634,1.958,0.948,1.534,0.255,1.663,0.938,2.363,1.651,0.713,3.849,1.848,1.913,1.823,3.978,2.541,1.1,0.844,1.083,1.812,0.961,0.566,1.8,0.023,0.252,1.94-0.016,1.245,0.812,1.394,0.819,0.84,1.5,1.679,1.624,2.787,1.22,1.952,0.26,1.248,1.092,1.121,1.925,0.855,1.521,0.019,1.931,0.44,0.119,1.523,0.943,1.949,1.232,0.984-0.014,1.106-0.167,2.211-0.449,2.622-1.27,1.92-0.716,1.927-0.029,2.213-0.733,3.172,0.252,1.94,1.468,4.168,2.024,3.9-0.587,2.62-0.42.409-0.007.553-0.84.819-0.023,1.8,1.367,1.262-0.005.415,2.471,1.415,0.409,0.42-0.005.415,0.94,2.225-1.41,2.057-1.4,1.365-1.95,1.081-1.117.815-2.11,2.739,0.533,1.528,0.681,0.839,0.812,1.394,0.507,3.6,0.4,1.112,3.292,2.117,1.934,0.163-0.013.968-0.151.966-0.864,2.617,0.675,1.254-0.029,2.213,0.4,1.527,0.117,1.661-1.818,1.5L1300,664.527l0.409,0.42-0.029,2.213-0.84.819L1298,669.066l-0.848,1.372-1.124,1.369-0.431,1.239-0.014,1.106,0.4,0.835-0.025,1.936-0.161,1.8-1.543,1.64-0.151.966-0.025,1.936,0.817,0.979,0.4,1.527,0.1,3.044-1,2.615-0.422.548-0.851,1.649-1.823,1.913-1,2.477,0.382,2.495-0.44,1.931-0.434,1.516,0.257,1.525-0.03,2.351-1.263,1.367-2.785,1.486-1.4,1.227-0.988,1.509-0.016,1.245-0.853,1.787-2.371,1.491-1.521-.02-0.7.821-0.013.968,0.681,0.839-0.44,1.931-1.532.81-0.432,1.378,0.541,0.975,0.395,1.527-0.036,2.766-1.53.672-0.853,1.787-3.5,3-2.1,2.324-3.2,1.2-0.005.415-0.42.409-1.245-.016-0.42.409-0.832.127-3.364,3.414-0.415-.005-0.422.548-0.415-.005-0.42.409-0.415-.005-0.42.409-0.415-.005-0.84.819-0.415-.005-1.262,1.367-0.011.83-0.422.548-0.83-.011-0.42.409-0.83-.011-0.42.409-0.968-.013-0.422.548-0.83-.011-0.42.409-0.415-.005-0.42.409-0.83-.011-0.42.409-3.736.09-0.409-.42-2.627-.034-0.42.409-0.409-.42-2.075-.027-0.409-.42-0.83-.011-0.409-.42-3.872-.05-0.409-.42-0.83-.011-0.409-.42-0.83-.011-0.409-.42-0.83-.011-0.819-.84-0.415-.005-0.548-.422-1.245-.016-0.409-.42-2.074-.027-0.409-.42-2.074-.027-0.409-.42-0.42.409-0.415-.005-0.559.408-0.83-.011-0.42.409-0.415-.005-0.422.548-0.415-.005-0.84.819-1.521-.02-1.658-.16-1.643-1.266-1.5-1.4-0.954-1.119-0.686-.424-0.415-.005-4.64-4.9-0.415-.005-0.409-.42-0.83-.011-0.42.409-0.415-.005-0.422.548-0.415-.005-1.261,1.229-0.415-.005-0.42.409-3.459.093-0.42.409-0.415-.005-0.819-.84-0.415-.005-3-3.082,0.007-.553-3.274-3.5-0.968-.013-0.409-.42-0.83-.011-0.409-.42-0.83-.011-0.409-.42-0.83-.011-0.409-.42-0.415-.005-0.409-.42-0.83-.011-0.409-.42-2.628-.034-0.409-.42-1.245-.016-0.409-.42-0.415-.005-0.409-.42-0.415-.005-0.409-.42-0.415-.005-0.409-.42-0.553-.007-0.408-.559-0.415-.005-0.409-.42-1.245-.016-0.819-.84-0.415-.005-0.409-.42-0.415-.005-1.227-1.4-0.553-.007-0.409-.42-0.83-.011-0.409-.42-0.83-.011-0.4-.391-0.415-.005-0.42.409-0.832.127-2.943,3-0.415-.005-0.42.409-2.628-.034-0.422.548-1.245-.016-0.409-.42-0.415-.005-1.227-1.4-0.415-.005-0.409-.42-0.415-.005-0.409-.42-0.415-.005-0.42.409-0.415-.005-0.548-.422-1.659-.022-0.822-.84-0.415-.005-0.819-.841-0.415-.005-0.407-.559-0.832.127-0.408-.559-0.968-.013-0.409-.42-0.415-.005-0.819-.84-0.415-.005-0.819-.84-0.415-.005-0.409-.42-0.83-.011-0.409-.42-0.968-.013-0.42.409-2.489-.032-0.42.409-2.074-.027-0.422.548-0.83-.011-0.42.409-0.415-.005-0.42.409-2.627-.034-0.409-.42-0.83-.011-0.409-.42-2.074-.027-0.409-.42-3.459.093-0.408-.559-0.415-.005-1.229-1.261,0.039-3.042-0.409-.42,0.007-.553-1.776-1.683-0.83-.011-0.409-.42-1.8-.023-1.8.253-1.372-.848-1.236-.708-1.518-.3-1.916-1.546,0.016-1.245-0.409-.42,0.007-.553-0.409-.42-0.127-.832-0.409-.42,0.005-.415-0.817-.979,0.005-.415-0.409-.42-1.636-1.819-0.83-.011-0.957-.842-0.415-.005-0.819-.84-0.83-.011-0.42.409-0.415-.005-0.42.409-0.415-.005-0.422.548-0.415-.005-0.42.409-2.074-.027-0.409-.42-0.415-.005-0.548-.422-0.415-.005-0.409-.42-0.415-.005-0.408-.559-0.415-.005-0.819-.84-0.415-.005-1.229-1.261,0.023-1.8,0.42-.409-0.126-.97,0.42-.409,0.005-.415-0.409-.42,0.011-.83-0.817-.979,0.005-.415-1.636-1.819-1.776-1.683-0.415-.005-1.227-1.4-0.832.127-0.408-.559-0.415-.005-3-3.082-0.415-.005-3.413-3.5,0.005-.415-0.409-.42,0.013-.968-4.232-4.342,0.005-.415-0.409-.42,0.013-.968-3.274-3.5-0.127-.832-0.409-.42,0.013-.968-2.048-2.1-0.415-.005-0.408-.559-0.415-.005-0.422.548-0.415-.005-0.42.409-5.117-.066-0.409-.42-1.245-.016-1.367-1.262,0.005-.415-0.408-.559,0.005-.415-0.819-.84,0.005-.415-0.819-.84-0.415-.005-0.408-.559,0.034-2.627-0.409-.42,0.005-.415-0.548-.422,0.018-1.383,0.42-.409,0.023-1.8,0.42-.409,0.005-.415,0.42-.409,0.013-.968,1.261-1.229-0.409-.42,2.525-2.734,0.011-.83,0.42-.409,0.018-1.383,0.42-.409,0.005-.415,0.422-.548,0.045-3.457,0.42-.409,0.023-1.8-1.367-1.263-1.66-.022-1.227-1.4,0.016-1.245-0.409-.42-0.12-1.385-0.409-.42,0.011-.83-0.408-.559,0.005-.415-0.409-.42,0.005-.415-0.409-.42,0.005-.415-0.817-.979,0.023-1.8-0.409-.42,0.005-.415-0.409-.42,0.42-.409-0.1-3.044,0.422-.548,0.011-.83-0.409-.42,0.005-.415,0.422-.548,0.028-2.213-0.819-.841,0.005-.415-1.367-1.262,0.018-1.383-0.409-.42,0.013-.968-0.409-.42,0.011-.83-2.594-2.662-0.409-.42-0.415-.005-0.408-.559-0.4-.835-0.675-1.254-1.092-1.121-1.09-1.259-0.957-.842-1.929-.578L1025,595.173l-0.682-.7,0.005-.415-0.819-.84,0.005-.415-1.227-1.4-1.262,1.367-0.415-.005-0.819-.841-0.415-.005-1.365-1.4,0.005-.415,1.122-1.23,1.4-1.088,1.943-.528,0.427-.963-0.088-3.874-0.391-1.8,0.005-.415-0.409-.42,0.011-.83,0.422-.548,0.005-.415-0.409-.42,0.005-.415-0.409-.42,0.007-.553-0.409-.42,0.005-.415-0.409-.42,0.005-.415-1.227-1.4,0.005-.415-1.367-1.263,0.005-.415-2.865-3.08-0.415-.005-0.42.409-0.409-.42-0.553-.007-1.636-1.819,0.005-.415-0.409-.42-0.415-.005-3.413-3.5-0.415-.005-1.227-1.4,0.005-.415-0.409-.42,0.013-.968-0.409-.42-0.1-2.629,0.42-.409,0.415,0.005,0.548,0.422,0.83,0.011,1.262-1.367-0.819-.84-0.127-.832-1.636-1.819,0.005-.415-5.049-5.321-0.415-.005-0.409-.42-0.415-.005-0.409-.42-3.042-.039-0.409-.42-0.83-.011-0.819-.84-0.415-.005-0.409-.42-0.415-.005-0.408-.559-0.415-.005-0.957-.842-0.415-.005-0.409-.42-0.415-.005-0.819-.84-0.415-.005-3-3.082,0.013-.968,0.42-.409,0.005-.415,3.365-3.553,0.005-.415,1.683-1.776,0.005-.415,0.42-.409,0.553,0.007,0.422-.548,0.415,0.005,0.42-.409,1.66,0.021,0.42-.409,0.83,0.011,2.1-2.186,2.074,0.027,0.409,0.42,1.8,0.023,0.409,0.42,2.076-.111,2.1-2.186,0.005-.415,0.42-.409-0.409-.42,0.005-.415-0.817-.979-0.415-.005-0.409-.42-0.553-.007-3.308-.873-0.42.409-0.83-.011-0.409-.42-1.659-.021-0.957-.842,0.005-.415-0.409-.42,0.842-.957,0.005-.415,1.683-1.776,0.034-2.627-0.409-.42,0.005-.415-0.407-.559-0.823-.564-0.966-.15-1.527.395-1.534.948-1.257.952-2.231,1.354-0.846,1.234-0.844,1.1-0.3,1.794,0.126,0.97,0.127,0.832,0.409,0.42-0.842.957-2.628-.034-0.409-.42-0.415-.005-0.819-.84-2.489-.032-0.841.819-0.023,1.8,2.865,3.08-0.005.415-0.842.957-0.005.415-0.84.819-1.245-.016-0.409-.42-0.83-.011-0.409-.42-0.83-.011-0.409-.42-0.83-.011-0.007.553-0.42.409-0.011.83,0.409,0.42-0.034,2.628,0.408,0.559-0.005.415,0.819,0.84-0.005.415,0.409,0.42-0.007.553,0.548,0.422-0.016,1.245-0.42.409-0.075,5.808-0.42.409-0.005.415-2.1,2.186-0.415-.005-0.422.548-0.415-.005-2.1,2.186-0.005.415-0.42.409-0.005.415-0.42.409-0.007.553-1.261,1.229-0.415-.005-0.422.548-0.83-.011-0.42.409-0.83-.011-0.548-.422-0.415-.005-0.409-.42,0.007-.553-0.409-.42-0.83-.011-1.262,1.367-4.564-.059-2.1,2.324-0.005.415-1.4,1.227-0.415-.005-0.422.548-0.415-.005-0.42.409-0.415-.005-0.42.409-0.83-.011-0.842.957-0.84.819-0.415-.005-0.42.409-0.415-.005-0.422.548-2.489-.032-0.42.409-0.83-.011-0.42.409-0.83-.011-0.56.546-0.409-.42-1.66-.022-0.42.409-0.409-.42-0.83-.011-0.42.409-1.245-.016-0.42.409-1.246.122-0.408-.559-0.968-.013-0.422.548-0.415-.005-0.42.409-2.489-.032-1.258-1.277,0.013-.968-1.367-1.262-0.415-.005-0.409-.42-4.979-.064-0.42.409-0.415-.005-3.786,3.962-0.415-.005-0.548-.422-1.245-.016-0.409-.42-0.415-.005-0.819-.84-0.415-.005-0.409-.42-0.415-.005-0.409-.42-0.415-.005-0.409-.42-1.383-.018-0.409-.42-0.83-.011-0.42.409-2.074-.027-0.84.819-1.246.122-1.106-.014-1.8.115-2.089,1.08-1.523.118-1.25.4-1.809.807-0.711,1.512,0.25,2.078-0.152,1.1-0.447,2.484,0.131,0.555,0.388,2.08-0.84.819-2.645,1.349-0.42.409-0.415-.005-0.42.409-0.415-.005-1.262,1.367-0.83-.011-0.409-.42-0.415-.005-0.409-.42-0.415-.005-0.409-.42-0.415-.005-0.409-.42-0.415-.005-0.817-.979-0.968-.013-0.819-.84-0.83-.011-0.409-.42-0.83-.011-0.42.409-0.415-.005-0.422.548-0.415-.005-0.84.819-1.245-.016-0.83-.011-3.481,1.753-0.005.415-2.525,2.734-0.005.415-0.42.409-0.005.415-1.262,1.367-1.66-.021-0.409-.42-2.074-.027-0.409-.42-0.415-.005-0.548-.422-0.83-.011-0.409-.42-0.415-.005-0.409-.42-0.83-.011-0.409-.42-2.9-.037-0.548-.422-0.83-.011-0.409-.42-2.628-.034-1.11.262L849,578.087l-0.548-.422-0.83-.011-1.385.12-0.973.4-0.842.957-0.415-.005-0.42.409-0.83-.011-0.42.409-0.415-.005-1.229-1.261-3.457-.045-0.422.548-0.83-.011-0.42.409-0.415-.005-0.42.409-2.9-.038-0.422.548L831,579.928l-1.512-.711-0.823-.564-0.688-.285-2.09,1.218-3.324.372-0.005.415-0.422.548-1.383-.018-0.42.409-1.245-.016-0.42.409-1.245-.016-0.422.548-0.415-.005-2.1,2.186-0.011.83-0.42.409-0.285.688-1.4,1.089-1.257.952-2.353.108-1.4,1.088-1.119.954-0.832.127-1.519-.158-1.239-.431-1.243-.154-1.11.262-0.28.273-1.254.675-1.521-.02L796,591.093l-3.315-.319-1.106-.014-0.961-.566-0.4-.835-1.1-.706-0.273-.28-1.1-.429-1.1-.844-1.516-.434-1.8-.023-1.66-.021-2.633.381-0.42.409-0.415-.005-0.422.548-0.415-.005-1.683,1.776-0.415-.005-0.42.409-1.245-.016-0.409-.42-0.415-.005-0.409-.42-0.968-.013-0.409-.42-2.074-.027-0.409-.42-0.83-.011-1.227-1.4-0.124-1.108,0.016-1.245,0.019-1.521-0.252-1.94-1.784-1.13-0.408-.559-1.234-.846L762.3,577.1l-0.406-.7-1.911-1.961-0.954-1.119-1.516-.434-2.626-.172-2.351-.03-1.381-.156-2.073-.165-2.351-.03-1.787-.853-2.2-1-2.065-.718L738.9,568.5l-0.964-.289-1.1-.291-1.092-1.121-1.1-.706-1.1-.567-1.241-.293-1.4.95-1.246.122-2.48-.724-0.688-.285L724,564.853l-0.823-.564-1.658-.16-2.071-.3-2.908.239-0.832.127-0.408-.559-1.246.122-0.408-.559-2.491.106-0.409-.42-2.213-.028-0.409-.42-1.245-.016-0.409-.42-2.489-.032-1.237-.569-1.361-1.677-0.95-1.4,0.291-1.1,0.848-1.372-0.808-1.67-2.2-1-1.092-1.121-1.918-1.408-2.479-.862-2.216.248-1.665.393-0.007.553-2.074-.027-1.241-.293-1.8.253-0.415-.005-0.409-.42-0.42.409-0.409-.42-0.415-.005-0.409-.42-0.415-.005-0.409-.42-0.415-.005-1.365-1.4-1.661.117-0.42.409-0.83-.011-0.409-.42-0.415-.005-0.548-.422-2.908.239-0.832.127-0.005.415-0.422.548-0.415-.005-0.42.409-0.415-.005-0.42.409-0.415-.005-0.409-.42-0.83-.011-1.636-1.819-0.415-.005-1.367-1.262-0.83-.011-0.819-.84-2.9-.037-0.409-.42-0.968-.013-0.42.409-0.415-.005-1.262,1.367-0.415-.005-0.84.819-0.83-.011-0.422.548-1.245-.016-0.42.409-1.245-.016-0.409-.42-0.83-.011-0.409-.42-0.83-.011-0.957-.842-0.415-.005-0.808-1.67-1.227-1.4-1.234-.846-0.815-1.117-1.237-.569-1.945.666-1.523.118-1.775-1.821,0.005-.415-2.046-2.239-0.415-.005-0.409-.42-0.415-.005-0.409-.42-0.83-.011-0.548-.422-0.415-.005-0.409-.42-0.415-.005-0.817-.979-0.415-.005-2.594-2.662-0.415-.005-1.229-1.261-0.415-.005-0.409-.42-0.83-.011-0.409-.42-4.7-.061-0.422.548-0.83-.011-0.409-.42-0.415-.005-0.408-.559-0.415-.005-0.409-.42,0.005-.415-0.409-.42-0.127-.832-0.408-.559,0.005-.415-1.638-1.681,0.013-.968,0.42-.409,0.011-.83-0.409-.42,0.007-.553,0.42-.409,0.005-.415,1.262-1.367,0.005-.415L611.9,517.9l0.018-1.383-0.409-.42,0.005-.415-0.409-.42,0.007-.553-0.409-.42,0.005-.415-0.409-.42,0.011-.83-0.408-.559,0.005-.415-0.409-.42-0.07-5.257-0.395-1.527,0.014-1.106,0.039-3.042-0.546-.56,0.021-1.66-0.409-.42,0.036-2.766-0.409-.42,0.005-.415-0.409-.42,0.023-1.8L606.438,491l0.023-1.8-0.409-.42,0.011-.83-0.409-.42,0.028-2.213-0.409-.42,0.007-.553-0.548-.422,0.005-.415-0.819-.841,0.005-.415-0.408-.559,0.022-1.659,0.422-.548,0.021-1.66-0.409-.42-0.076-4.842,0.422-.548,0.073-5.67-0.409-.42L603.5,461.5l-0.409-.42,0.018-1.383,0.42-.409-0.381-2.633L603.17,455l-0.535-1.39,0.005-.415-0.408-.559,0.05-3.872-0.409-.42,0.013-.968-0.409-.42,0.005-.415-0.548-.422,0.028-2.213,0.42-.409,0.028-2.213-0.409-.42,0.007-.553-0.409-.42,0.011-.83-0.409-.42,0.005-.415-0.407-.559,0.005-.415-0.548-.422,0.011-.83-0.409-.42,0.007-.553-0.409-.42,0.005-.415-0.819-.84,0.013-.968-0.819-.84,0.005-.415-0.409-.42-0.126-.97-0.819-.84-0.415-.005-0.409-.42,0.42-.409,0.023-1.8-0.409-.42,0.005-.415-0.817-.979,0.005-.415-3.822-3.922,0.011-.83-0.408-.559-0.122-1.246-0.409-.42,0.005-.415-0.408-.559,0.005-.415-0.409-.42,0.005-.415-0.409-.42,0.005-.415-0.408-.559,0.005-.415-0.409-.42,0.005-.415-0.409-.42,0.018-1.383-0.409-.42-0.1-2.629L585,406.084l0.013-.968-0.409-.42,0.011-.83-0.409-.42,0.018-1.383-0.548-.422,0.005-.415-0.409-.42,0.007-.553-0.409-.42,0.005-.415-0.409-.42,0.011-.83-0.408-.559,0.005-.415-0.409-.42,0.011-.83-0.409-.42,0.018-1.383-0.548-.422,0.005-.415-0.409-.42,0.007-.553-0.409-.42,0.005-.415-0.409-.42,0.005-.415-0.409-.42,0.007-.553-0.409-.42,0.005-.415-0.409-.42,0.005-.415-0.817-.979,0.005-.415-1.367-1.262,0.005-.415-0.407-.559,0.005-.415-0.409-.42,0.005-.415-1.229-1.261,0.422-.548,0.005-.415,0.42-.409,0.005-.415-0.817-.979,0.005-.415-2.594-2.662-0.415-.005-0.409-.42,0.005-.415-1.229-1.261,0.007-.553-0.415-.005-3-3.082-0.415-.005-1.269-1.286L564,369l-2.184-2.241-0.415-.005-1.229-1.261,0.023-1.8-0.415-.005-1.776-1.683L557.592,362l-0.407-.559-0.415-.005-0.819-.84,0.016-1.245,0.422-.548,0.005-.415,0.84-.819,0.005-.415,0.422-.548,0.713-1.651,0.569-1.237,0.576-1.791,0.432-1.378,0.163-1.934,0.585-2.482-0.663-2.222-2.331-1.552-1.379-.294,0.014-1.106,0.566-.961,0.3-1.794-0.1-3.182-0.819-.84,0.005-.415-0.409-.42,0.013-.968-1.229-1.261,0.005-.415-0.409-.42,0.013-.968,0.84-.819,0.415,0.005,1.262-1.367,0.977-.679,0.7-.683,0.023-1.8-0.8-1.947-0.129-.693,0.569-1.237,0.706-1.1,0.438-1.792,0.027-2.074-0.649-3.328-0.4-1.112,0.161-1.8,0.844-1.1,2.1-2.186,0.018-1.383,0.045-3.457-0.956-.981,0.005-.415,0.42-.409-0.409-.42,0.018-1.383-0.409-.42,0.016-1.245-0.408-.559-0.088-3.874-0.409-.42,0.007-.553-0.409-.42,0.005-.415-0.409-.42,0.005-.415-0.409-.42-0.415-.005-0.817-.979,0.016-1.245-0.409-.42,0.013-.968-0.548-.422,0.005-.415-0.819-.84,0.013-.968-0.409-.42,0.005-.415-0.409-.42,0.013-.968,0.42-.409,0.034-2.628,0.42-.409-0.127-.832-0.408-.559,0.005-.415-0.409-.42,0.005-.415-0.409-.42,0.013-.968-0.819-.84,0.005-.415-1.636-1.819-0.127-.832,0.42-.409,0.968,0.013,0.422-.548L552.9,265.13l-1.245-.016-0.409-.42-0.415-.005-0.817-.979,0.011-.83,0.42-.409,0.013-.968-0.409-.42-0.127-.832-0.409-.42,0.018-1.383,0.42-.409,0.415,0.005,0.835-.4,0.422-.548,2.628,0.034,0.819,0.84-0.007.553,0.409,0.42,0.415,0.005,0.422-.548,0.005-.415,0.42-.409,0.005-.415-0.819-.84-0.415-.005-0.408-.559,0.011-.83-0.409-.42,0.005-.415,0.42-.409-0.126-.97-0.409-.42,0.005-.415-2.046-2.239-0.83-.011-0.409-.42-0.415-.005-1.776-1.683,0.007-.553,0.84-.819,0.011-.83-0.408-.559,0.42-.409,0.415,0.005,0.84-.819,0.005-.415,0.422-.548,0.005-.415,0.84-.819,0.83,0.011,0.409,0.42,0.415,0.005,0.842-.957,1.683-1.776,0.011-.83,0.42-.409,0.013-.968-0.409-.42,0.016-1.245,0.422-.548,0.005-.415,0.42-.409,0.005-.415,0.42-.409,0.007-.553,0.58-2.067-0.126-.97,1.263-1.367,0.415,0.005,0.408,0.559,0.415,0.005,0.819,0.84,0.415,0.005,1.665-.393,1.385-.12,0.546,0.56,1.1,0.706,0.966,0.151,0.681,0.839,3.342-1.755,2.661-2.594,0.007-.553,1.25-.4,4.177-2.159,1.683-1.776,1.667-.532,0.835-.4,1.261-1.229,0.837-.542,1.683-1.776,4.84,0.063,0.826,0.287,1.1,0.429,1.518,0.3,0.823,0.564,1.11-.262,0.977-.679,0.835-.4,1.1,0.152,1.8,0.023,0.959,0.7,1.241,0.293,1.663-.255,2.085-.8,0.7-.406,0.42-.409,0.835-.4,0.42-.409,1.667-.532,1.388-.4,2.911-.516,2.911-.516,1.257-.952,1.252-.537,1.122-1.23,1.252-.537,0.42-.409,0.291-1.1,0.564-.823,0.016-1.245,0.576-1.791,0.149-.828-1.624-2.787-1.23-1.122-0.269-.557-1.106-.014-0.828-.149-1.512-.711-0.829-.163-1.232-.984,0.016-1.245-0.4-.973-0.395-1.527-1.262,1.367-0.415-.005-0.005.415-0.84.819,0.819,0.84-0.007.553,0.819,0.84-0.005.415,1.365,1.4,0.415,0.005,0.409,0.42,0.83,0.011,0.684,0.562-0.025,1.936-0.569,1.237-0.84.819-1.122,1.23-0.152,1.1-0.289.964-1.11.262-0.966-.151,0.013-.968,0.291-1.1-0.683-.7-1.241-.293-0.559.408-0.422.548-0.83-.011-0.681-.839,0.009-.691,0.42-.409,0.427-.963,0.011-.83-0.546-.56-1.087-1.536,0.564-.823,0.695-.268,0.287-.826-0.269-.557-0.55-.284-1.115.677-0.839.681-0.566.961-2.089,1.08-0.693.129-1.108.124-0.406-.7,0.152-1.1,0.975-.541,1.528-.533,0.839-.681,0.56-.546,1.119-.954,0.977-.679,0.7-.406,0.984-1.232,1.814-1.221,0.7-.683,0.982-1.094,0.706-1.1,0.7-.406,1.25-.4,0.844-1.1,1.4-1.227,0.42-.409,0.427-.963,1.529-.534,1.254-.675,0.566-.961,1.388-.4,0.557-.269,1.4-.95,0.7-.683,0.69,0.147,0.542,0.837,0.124,1.108-1.527.4-0.562.684-1.254.675-0.837.542-0.422.548-0.415-.005-2.1,2.186-0.005.415-0.842.957-0.415-.005-1.261,1.229-0.415-.005-0.422.548-0.147.69,0.684,0.562,1.108-.124,1.237,0.569,0.968,0.013,1.392-.674,1.112-.4,1.681-1.638,2.08-.388,1.262-1.367,0.415,0.005,0.408,0.559,0.415,0.005,0.409,0.42,0.415,0.005,0.409,0.42,2.628,0.034,0.422-.548,0.415,0.005,0.42-.409,0.011-.83,0.842-.957,0.415,0.005,0.42-.409,0.83,0.011,0.835-.4,0.42-.409,0.415,0.005,0.842-.957,0.415,0.005,0.42-.409,0.835-.4,1.523-.118,0.828,0.149,1.11-.262,1.523-.118,1.381,0.156,1.374,0.709,0.69,0.147,1.379,0.294,0.691,0.009,0.959,0.7,0.819,0.84,0.83,0.011,1.938-.113,1.527-.4,1.248-.261,1.259-1.09,0.844-1.1,0.7-.959,0.014-1.106,0.842-.957,0.984-1.232,1.39-.535,1.512,0.711,0.415,0.005,0.824,0.425,0.958,0.979,3.308,0.873,1.239,0.431,1.367,1.262,0.83,0.011,1.108-.124,1.934,0.163,0.553,0.007,1.792,0.438,0.42-.409,0.968,0.013,0.409,0.42,0.415,0.005,1.263-1.367,0.415,0.005,2.523-2.6,0.007-.553,0.84-.819,0.415,0.005,0.42-.409,2.074,0.027,0.409,0.42,0.109,2.214,1.638,1.681,0.415,0.005,0.409,0.42,0.83,0.011,0.005-.415,0.42-.409,2.074,0.027,0.548,0.422,0.415,0.005,0.409,0.42,0.415,0.005,0.409,0.42L702.9,184.9l0.409,0.42,1.261-1.229,0.007-.553,1.261-1.229,0.415,0.005,0.422-.548,0.408,0.559,0.415,0.005,0.409,0.42,0.968,0.013,0.422-.548,1.245,0.016,0.409,0.42,0.42-.409,0.415,0.005,0.7-.544,0.837-.542,0.972-.264,0.975-.541,0.567-1.1,0.289-.964,0.011-.83,0.289-.964,1.255-.814,2.911-.516,1.94-.252,0.429-1.1,0.842-.957,0.429-1.1-0.253-1.8-0.812-1.394-1.638-1.681,0.84-.819,0.691,0.009,0.961,0.566,1.527-.4,1.523-.118,1.121-1.092,0.016-1.245,1.262-1.367,3.457,0.045,0.42-.409,0.415,0.005,1.262-1.367,0.005-.415,1.262-1.367,0.005-.415,1.262-1.367,0.981-.956,0.844-1.1,0.432-1.378,0.571-1.376,1.277-2.473,0.027-2.074,0.3-1.518,0.025-1.936-1.078-2.227-1.09-1.259,0.011-.83,0.848-1.372Z" transform="translate(-90.605 -103.461)"/>
    </g>
</svg>